<svg width="20" height="21" viewBox="0 0 20 21" fill="none" xmlns="http://www.w3.org/2000/svg">
<g id="mdi:wide-area-network">
<path id="Vector" d="M9.99996 2.00024C8.23185 2.00024 6.53616 2.70262 5.28591 3.95287C4.03567 5.20311 3.33329 6.8988 3.33329 8.66691C3.33329 12.0252 5.83329 14.8502 9.16663 15.2752V16.1669H8.33329C8.11228 16.1669 7.90032 16.2547 7.74404 16.411C7.58776 16.5673 7.49996 16.7792 7.49996 17.0002H1.66663V18.6669H7.49996C7.49996 18.8879 7.58776 19.0999 7.74404 19.2562C7.90032 19.4124 8.11228 19.5002 8.33329 19.5002H11.6666C11.8876 19.5002 12.0996 19.4124 12.2559 19.2562C12.4122 19.0999 12.5 18.8879 12.5 18.6669H18.3333V17.0002H12.5C12.5 16.7792 12.4122 16.5673 12.2559 16.411C12.0996 16.2547 11.8876 16.1669 11.6666 16.1669H10.8333V15.2752C14.1666 14.8586 16.6666 12.0252 16.6666 8.66691C16.6666 6.8988 15.9642 5.20311 14.714 3.95287C13.4638 2.70262 11.7681 2.00024 9.99996 2.00024ZM9.99996 3.66691C9.99996 3.66691 10.6166 4.73358 11.05 6.16691H8.94996C9.38329 4.73358 9.99996 3.66691 9.99996 3.66691ZM8.14163 4.02524C7.91663 4.44191 7.57496 5.20024 7.28329 6.16691H5.67496C6.24996 5.20024 7.08329 4.44191 8.14163 4.02524ZM11.8583 4.03358C12.9166 4.45024 13.75 5.20024 14.325 6.16691H12.7166C12.425 5.20024 12.0833 4.44191 11.8583 4.03358ZM5.07496 7.83358H6.93329C6.89996 8.10858 6.87496 8.38358 6.87496 8.66691C6.87496 8.95024 6.89996 9.22524 6.93329 9.50024H5.07496C4.97405 8.94927 4.97405 8.38455 5.07496 7.83358ZM8.59996 7.83358H11.4C11.4333 8.10858 11.4583 8.38358 11.4583 8.66691C11.4583 8.95024 11.4333 9.22524 11.4 9.50024H8.59996C8.56663 9.22524 8.54163 8.95024 8.54163 8.66691C8.54163 8.38358 8.56663 8.10858 8.59996 7.83358ZM13.0666 7.83358H14.925C15.0259 8.38455 15.0259 8.94927 14.925 9.50024H13.0666C13.1 9.22524 13.125 8.95024 13.125 8.66691C13.125 8.38358 13.1 8.10858 13.0666 7.83358ZM5.67496 11.1669H7.28329C7.57496 12.1336 7.91663 12.8919 8.14163 13.3002C7.08329 12.8836 6.24996 12.1336 5.67496 11.1669ZM8.94996 11.1669H11.05C10.6166 12.6002 9.99996 13.6669 9.99996 13.6669C9.99996 13.6669 9.38329 12.6002 8.94996 11.1669ZM12.7166 11.1669H14.325C13.75 12.1336 12.9166 12.8919 11.8583 13.3086C12.0833 12.8919 12.425 12.1336 12.7166 11.1669Z" fill="black"/>
</g>
</svg>
