<svg width="20" height="20" viewBox="0 0 20 20" fill="none" xmlns="http://www.w3.org/2000/svg">
<g id="mdi:bathroom-tissue">
<path id="Vector" d="M7.5 2.5C4.74167 2.5 2.61667 4.74167 2.5 7.5V17.5H10V11.2167C10.9167 12.0417 12.0833 12.5 13.3333 12.5C16.0917 12.5 18.3333 10.2583 18.3333 7.5C18.3333 4.74167 16.0917 2.5 13.3333 2.5H7.5ZM13.3333 4.16667C15.175 4.16667 16.6667 5.65833 16.6667 7.5C16.6667 9.34167 15.175 10.8333 13.3333 10.8333C11.4917 10.8333 10 9.34167 10 7.5C10 5.65833 11.4917 4.16667 13.3333 4.16667ZM13.3333 6.04167C12.525 6.04167 11.875 6.69167 11.875 7.5C11.875 8.30833 12.525 8.95833 13.3333 8.95833C14.1417 8.95833 14.7917 8.30833 14.7917 7.5C14.7917 6.69167 14.1417 6.04167 13.3333 6.04167ZM3.33333 10H4.16667V10.8333H3.33333V10ZM5 10H5.83333V10.8333H5V10ZM6.66667 10H7.5V10.8333H6.66667V10ZM8.33333 10H9.16667V10.8333H8.33333V10Z" fill="white"/>
</g>
</svg>
