<svg width="20" height="20" viewBox="0 0 20 20" fill="none" xmlns="http://www.w3.org/2000/svg">
<g id="mdi:bed">
<path id="Vector" d="M15.8334 5.83329H9.16671V11.6666H2.50004V4.16663H0.833374V16.6666H2.50004V14.1666H17.5V16.6666H19.1667V9.16663C19.1667 8.28257 18.8155 7.43472 18.1904 6.8096C17.5653 6.18448 16.7174 5.83329 15.8334 5.83329ZM5.83337 10.8333C6.49641 10.8333 7.1323 10.5699 7.60114 10.1011C8.06998 9.63222 8.33337 8.99633 8.33337 8.33329C8.33337 7.67025 8.06998 7.03437 7.60114 6.56553C7.1323 6.09668 6.49641 5.83329 5.83337 5.83329C5.17033 5.83329 4.53445 6.09668 4.06561 6.56553C3.59677 7.03437 3.33337 7.67025 3.33337 8.33329C3.33337 8.99633 3.59677 9.63222 4.06561 10.1011C4.53445 10.5699 5.17033 10.8333 5.83337 10.8333Z" fill="#DCEDFF"/>
</g>
</svg>
